<?xml version="1.0" standalone="no"?>
<!DOCTYPE svg PUBLIC "-//W3C//DTD SVG 20010904//EN"
 "http://www.w3.org/TR/2001/REC-SVG-20010904/DTD/svg10.dtd">
<svg version="1.0" xmlns="http://www.w3.org/2000/svg"
 width="512.000000pt" height="512.000000pt" viewBox="0 0 512.000000 512.000000"
 preserveAspectRatio="xMidYMid meet">

<g transform="translate(0.000000,512.000000) scale(0.100000,-0.100000)"
fill="none" stroke="none">
<path d="M2622 5109 c-183 -32 -320 -107 -464 -251 -59 -60 -114 -108 -121
-108 -7 0 -29 12 -48 26 -188 143 -483 163 -709 49 -123 -62 -240 -180 -300
-301 -37 -75 -70 -200 -70 -264 0 -26 -6 -52 -12 -58 -7 -5 -60 -12 -118 -14
-305 -14 -560 -221 -637 -518 -22 -86 -21 -244 2 -330 30 -117 89 -216 184
-310 93 -92 171 -140 296 -181 65 -21 91 -23 375 -27 300 -4 306 -3 333 18 34
27 37 80 7 110 -19 19 -33 20 -293 20 -304 0 -362 8 -470 61 -291 141 -391
504 -212 773 100 151 266 236 459 236 101 0 139 13 183 63 35 40 53 91 53 151
0 102 60 242 140 325 103 107 223 161 375 168 89 5 108 2 178 -21 44 -15 113
-49 154 -76 67 -44 82 -50 130 -50 71 0 122 27 168 89 198 271 574 357 875
200 169 -87 293 -235 344 -408 24 -81 23 -82 -45 -54 -33 13 -100 29 -148 36
-113 14 -228 -6 -339 -59 -106 -51 -224 -168 -276 -274 -39 -80 -66 -186 -66
-262 0 -44 -2 -48 -27 -54 -247 -54 -413 -251 -413 -489 0 -120 35 -218 112
-317 l30 -38 -321 0 c-308 0 -322 -1 -341 -20 -30 -30 -27 -83 6 -109 l27 -21
1471 0 c1621 0 1536 -3 1660 63 101 53 216 183 216 242 0 27 -46 65 -80 65
-25 0 -38 -10 -76 -60 -26 -33 -70 -75 -98 -94 -102 -69 -51 -66 -1153 -66
-982 0 -994 0 -1056 21 -102 34 -164 88 -218 189 -20 38 -24 59 -24 140 0 112
18 161 86 235 56 60 109 91 194 110 118 28 155 71 155 183 0 226 163 422 385
463 157 29 333 -40 439 -172 69 -86 146 -102 232 -47 90 57 133 71 214 71 95
0 171 -28 237 -88 67 -59 100 -124 116 -228 23 -143 51 -167 198 -178 76 -5
110 -12 151 -32 66 -32 130 -97 166 -168 16 -30 41 -61 55 -69 24 -13 30 -13
54 0 15 9 34 27 42 42 14 24 13 31 -22 101 -81 165 -257 277 -434 277 -47 0
-53 3 -57 23 -2 12 -9 49 -15 82 -45 242 -314 428 -557 385 -77 -13 -151 -41
-202 -75 -34 -23 -37 -24 -55 -7 -31 28 -47 68 -47 120 0 125 -84 333 -184
459 -106 132 -283 246 -446 288 -78 19 -274 28 -348 14z" fill='white'/>
<path d="M1433 2640 c-34 -14 -43 -42 -43 -132 l-1 -83 -25 30 c-68 80 -86 95
-113 95 -56 0 -94 -56 -70 -103 7 -12 56 -77 111 -143 l98 -122 0 -90 0 -91
-78 45 -78 44 -58 152 c-32 84 -66 162 -77 172 -21 23 -71 25 -95 6 -33 -28
-35 -57 -9 -127 14 -36 23 -68 21 -70 -3 -3 -31 11 -64 30 -33 19 -68 38 -80
41 -29 10 -69 -12 -83 -47 -18 -44 3 -74 84 -121 76 -44 75 -51 -14 -61 -41
-5 -63 -13 -79 -30 -29 -31 -24 -81 12 -108 l27 -20 170 27 170 27 75 -43 c42
-24 76 -45 76 -48 0 -3 -35 -24 -76 -47 l-76 -43 -174 27 -173 27 -26 -24
c-17 -16 -25 -34 -25 -56 0 -45 36 -71 111 -80 33 -4 61 -10 64 -14 2 -3 -25
-23 -61 -44 -97 -57 -114 -92 -71 -142 32 -37 69 -34 145 12 35 20 65 35 67
32 3 -3 -6 -35 -20 -71 -13 -37 -22 -74 -18 -84 12 -36 36 -53 73 -53 23 0 43
7 52 18 8 9 41 86 73 169 l58 153 76 44 76 44 3 -89 3 -89 -99 -123 c-123
-151 -127 -160 -111 -198 6 -17 20 -34 30 -39 39 -21 63 -11 121 52 l58 63 0
-82 c0 -98 4 -109 42 -129 25 -13 35 -13 59 -3 42 17 49 36 49 134 l0 86 50
-60 c54 -64 86 -81 126 -62 29 13 47 55 38 85 -4 11 -54 78 -111 148 l-104
127 3 90 3 89 76 -44 76 -44 58 -150 c32 -82 64 -158 72 -170 18 -26 83 -28
105 -2 27 31 28 52 3 119 -13 37 -23 69 -21 71 2 1 37 -15 79 -37 83 -43 105
-44 137 -3 39 49 17 87 -78 141 -34 19 -59 37 -57 41 3 4 31 10 64 14 75 9
111 35 111 80 0 22 -8 40 -25 56 l-26 24 -174 -27 -174 -27 -63 37 c-98 56
-97 50 -12 100 l75 44 170 -27 170 -27 27 20 c18 13 28 31 30 53 5 47 -27 77
-91 85 -95 13 -96 17 -21 61 82 47 103 77 85 121 -14 35 -54 57 -83 47 -12 -3
-47 -22 -80 -41 -33 -19 -61 -33 -64 -30 -2 2 7 34 21 70 28 75 24 104 -18
132 -28 18 -68 12 -90 -13 -8 -10 -40 -85 -72 -169 l-57 -152 -77 -44 -76 -44
-3 88 -3 89 99 123 c54 67 104 132 111 144 24 47 -14 103 -70 103 -21 0 -41
-15 -83 -62 l-56 -63 0 88 c0 80 -2 90 -25 112 -25 26 -45 30 -82 15z" fill='white'/>
<path d="M2707 2596 c-97 -36 -152 -117 -151 -223 1 -80 38 -144 108 -188 87
-53 215 -37 283 37 97 103 73 276 -48 351 -56 34 -136 44 -192 23z m106 -148
c65 -34 63 -111 -3 -138 -38 -16 -82 0 -99 36 -17 38 -14 53 18 85 32 31 50
35 84 17z" fill='white'/>
<path d="M3578 2286 c-87 -32 -138 -93 -146 -176 -16 -165 156 -279 306 -203
45 24 97 97 105 151 13 80 -38 178 -113 217 -41 21 -111 26 -152 11z m82 -146
c31 -17 42 -45 28 -75 -15 -33 -51 -42 -83 -21 -31 20 -33 58 -5 86 23 23 33
24 60 10z" fill='white'/>
<path d="M3074 1838 c-35 -16 -44 -52 -44 -174 l0 -116 -47 59 c-81 101 -105
123 -135 123 -36 0 -78 -40 -78 -74 0 -17 42 -76 130 -185 l130 -161 0 -125
c0 -69 -2 -125 -3 -125 -2 0 -51 27 -108 60 l-103 60 -71 184 c-39 102 -79
194 -90 205 -27 31 -78 28 -104 -5 -31 -39 -31 -38 38 -212 12 -29 18 -51 14
-49 -5 2 -51 30 -105 61 -105 61 -145 69 -178 36 -21 -21 -26 -60 -10 -89 5
-10 54 -44 110 -76 55 -31 98 -61 95 -65 -2 -4 -48 -13 -102 -20 -109 -15
-143 -36 -143 -88 0 -35 37 -72 71 -72 13 0 109 14 212 30 l188 30 102 -59
c56 -32 102 -63 101 -67 0 -5 -46 -35 -102 -67 l-101 -58 -206 32 -206 32 -27
-20 c-19 -14 -28 -31 -30 -55 -4 -52 27 -73 136 -89 48 -7 95 -15 104 -18 12
-4 -15 -24 -90 -67 -113 -65 -131 -86 -118 -138 4 -18 18 -32 39 -41 38 -16
54 -11 171 59 43 26 81 44 84 42 2 -3 -12 -47 -32 -99 -42 -108 -43 -116 -15
-151 27 -34 77 -36 106 -3 11 12 51 104 89 203 l69 181 105 61 105 61 3 -124
3 -125 -126 -156 c-69 -86 -128 -168 -131 -181 -10 -37 24 -77 68 -81 38 -3
37 -4 162 143 l25 30 1 -113 c0 -79 4 -121 15 -141 23 -46 66 -54 108 -20 26
20 26 23 29 152 l3 131 69 -87 c42 -53 79 -90 94 -94 36 -9 75 8 90 40 18 38
8 56 -137 234 l-121 150 0 121 c0 67 2 122 6 122 9 0 198 -111 210 -123 6 -7
42 -93 80 -192 38 -99 76 -187 86 -197 23 -23 80 -23 100 0 29 32 28 56 -11
157 -21 55 -37 102 -35 104 1 2 43 -20 91 -47 49 -28 100 -55 113 -60 36 -14
76 4 91 40 20 48 -2 75 -120 144 -116 70 -119 62 34 85 88 14 125 38 125 84 0
29 -40 75 -66 75 -9 0 -104 -14 -211 -31 l-195 -31 -109 63 -109 62 28 17 c15
9 64 38 108 63 l82 47 186 -30 c103 -16 198 -30 212 -30 32 0 74 42 74 73 0
51 -27 67 -145 87 -61 11 -112 20 -115 20 -3 0 43 28 101 61 130 75 152 107
108 163 -32 41 -69 35 -184 -33 -55 -32 -101 -58 -102 -57 -2 2 15 49 37 105
43 110 44 140 7 166 -29 20 -73 19 -94 -3 -10 -9 -49 -98 -87 -197 -38 -99
-73 -185 -78 -192 -9 -12 -201 -123 -212 -123 -3 0 -6 54 -6 121 l0 121 125
154 c69 85 130 166 135 180 20 53 -34 106 -92 90 -13 -3 -54 -45 -93 -93 l-70
-87 -3 131 c-3 129 -3 132 -29 152 -28 23 -47 25 -79 9z" fill='white'/>
<path d="M1183 926 c-58 -19 -99 -51 -128 -100 -90 -153 18 -341 195 -340 125
0 220 97 220 224 0 36 -7 74 -16 93 -52 103 -169 156 -271 123z m120 -163 c10
-10 17 -31 17 -53 0 -80 -106 -106 -139 -33 -17 37 -14 52 19 85 25 24 36 29
58 23 15 -3 35 -14 45 -22z" fill='white'/>
<path d="M1742 535 c-82 -25 -152 -91 -181 -168 -6 -16 -11 -59 -11 -96 0
-110 49 -188 154 -244 31 -16 59 -22 116 -22 65 0 82 4 129 30 90 49 139 134
140 240 1 115 -81 227 -190 259 -63 19 -99 19 -157 1z m122 -149 c81 -34 103
-127 44 -191 -79 -86 -208 -35 -208 82 0 45 20 77 64 104 37 23 56 24 100 5z" fill='white'/>
</g>
</svg>
